<svg xmlns="http://www.w3.org/2000/svg" width="1001" height="301" viewBox="0 0 1001 301" fill="none" preserveAspectRatio="none">
<path d="M52.2069 213.714C32.6552 213.714 8.91381 245.988 1.00002 267.26V301H1000V1C984.638 3.20049 970.673 77.2843 962.293 78.0178C953.914 78.7513 947.862 35.475 939.483 36.942C931.103 38.409 932.5 61.8811 910.155 46.4777C887.81 31.0743 872.914 47.2112 863.603 70.6831C854.293 94.1549 835.207 102.224 819.845 89.7538C804.483 77.284 765.379 109.558 743.035 114.693C720.69 119.827 713.241 93.4213 703.931 89.7538C694.621 86.0863 690.431 110.292 676 119.827C661.569 129.363 648.069 103.691 638.759 102.224C629.448 100.757 619.672 139.632 611.293 149.168C602.914 158.703 588.483 149.168 576.379 157.236C564.276 165.305 558.69 141.099 547.983 139.632C537.276 138.165 533.086 155.036 526.103 157.236C519.121 159.437 505.621 142.566 500.035 149.168C494.448 155.769 463.259 170.438 449.759 166.038C436.259 161.637 428.81 187.309 417.638 191.71C406.466 196.111 405.535 171.905 390.638 170.438C375.741 168.971 339.431 187.309 328.259 179.974C317.086 172.639 304.052 166.771 300.328 175.573C296.603 184.375 279.379 187.309 265.879 191.71C252.379 196.111 247.724 204.912 232.828 199.778C221.323 195.813 194.655 188.043 184.414 187.309L184.027 187.281C173.925 186.556 164.226 185.861 150.897 187.309C137.397 188.776 110.862 215.786 92.7069 222.517C68.0345 231.664 62.7095 213.714 52.2069 213.714Z" fill="url(#paint0_linear_166_3418)" fill-opacity="0.4"/>
<path d="M52.2069 213.714C32.6552 213.714 8.91381 245.988 1.00002 267.26V301H1000V1C984.638 3.20049 970.673 77.2843 962.293 78.0178C953.914 78.7513 947.862 35.475 939.483 36.942C931.103 38.409 932.5 61.8811 910.155 46.4777C887.81 31.0743 872.914 47.2112 863.603 70.6831C854.293 94.1549 835.207 102.224 819.845 89.7538C804.483 77.284 765.379 109.558 743.035 114.693C720.69 119.827 713.241 93.4213 703.931 89.7538C694.621 86.0863 690.431 110.292 676 119.827C661.569 129.363 648.069 103.691 638.759 102.224C629.448 100.757 619.672 139.632 611.293 149.168C602.914 158.703 588.483 149.168 576.379 157.236C564.276 165.305 558.69 141.099 547.983 139.632C537.276 138.165 533.086 155.036 526.103 157.236C519.121 159.437 505.621 142.566 500.035 149.168C494.448 155.769 463.259 170.438 449.759 166.038C436.259 161.637 428.81 187.309 417.638 191.71C406.466 196.111 405.535 171.905 390.638 170.438C375.741 168.971 339.431 187.309 328.259 179.974C317.086 172.639 304.052 166.771 300.328 175.573C296.603 184.375 279.379 187.309 265.879 191.71C252.379 196.111 247.724 204.912 232.828 199.778C221.323 195.813 194.655 188.043 184.414 187.309L184.027 187.281C173.925 186.556 164.226 185.861 150.897 187.309C137.397 188.776 110.862 215.786 92.7069 222.517C68.0345 231.664 62.7095 213.714 52.2069 213.714Z" fill="url(#paint1_linear_166_3418)"/>
<path d="M1000 1C984.638 3.20049 970.672 77.2843 962.293 78.0178C953.914 78.7513 947.862 35.475 939.483 36.942C931.103 38.409 932.5 61.8811 910.155 46.4777C887.81 31.0743 872.914 47.2112 863.603 70.6831C854.293 94.1549 835.207 102.224 819.845 89.7538C804.483 77.284 765.379 109.558 743.034 114.693C720.69 119.827 713.241 93.4213 703.931 89.7538C694.621 86.0863 690.431 110.292 676 119.827C661.569 129.363 648.069 103.691 638.759 102.224C629.448 100.757 619.672 139.632 611.293 149.168C602.914 158.703 588.483 149.168 576.379 157.236C564.276 165.305 558.69 141.099 547.983 139.632C537.276 138.165 533.086 155.036 526.103 157.236C519.121 159.437 505.621 142.566 500.034 149.168C494.448 155.769 463.259 170.438 449.759 166.038C436.259 161.637 428.81 187.309 417.638 191.71C406.466 196.111 405.535 171.905 390.638 170.438C375.741 168.971 339.431 187.309 328.259 179.974C317.086 172.639 304.052 166.771 300.328 175.573C296.603 184.375 279.379 187.309 265.879 191.71C252.379 196.111 247.724 204.912 232.828 199.778C221.323 195.813 194.655 188.043 184.414 187.309C174.172 186.575 164.397 185.842 150.897 187.309C137.397 188.776 110.862 215.786 92.7069 222.517C68.0345 231.664 62.7095 213.714 52.2069 213.714C32.6552 213.714 8.91381 245.988 1.00002 267.26V301" stroke="#4A63E2" style="stroke: #20ABD7;"/>
<rect width="300" height="680" transform="translate(1.52588e-05 301) rotate(-90)" fill="url(#paint2_linear_166_3418)"/>
<defs>
<linearGradient id="paint0_linear_166_3418" x1="171.882" y1="11.061" x2="280.529" y2="432.318" gradientUnits="userSpaceOnUse">
<stop stop-color="#4A63E2"/>
<stop offset="1" stop-color="#20ABD7"/>
</linearGradient>


</defs>
</svg>
